<mxfile host="app.diagrams.net" modified="2023-10-14T13:12:00.283Z" agent="Mozilla/5.0 (Windows NT 10.0; Win64; x64) AppleWebKit/537.36 (KHTML, like Gecko) Chrome/115.0.0.0 Safari/537.36 Edg/115.0.1901.203" etag="m_niENgH-II2pf05Y_8-" version="21.7.5" type="github">
  <diagram name="第 1 页" id="Z2PqrVjuMP8-q8A3F45y">
    <mxGraphModel dx="1042" dy="569" grid="1" gridSize="10" guides="1" tooltips="1" connect="1" arrows="1" fold="1" page="1" pageScale="1" pageWidth="827" pageHeight="1169" math="0" shadow="0">
      <root>
        <mxCell id="0" />
        <mxCell id="1" parent="0" />
        <mxCell id="SbXN5RtH8hsS0JA_UMuh-10" value="" style="rounded=1;whiteSpace=wrap;html=1;fillColor=#ffff88;strokeColor=none;" vertex="1" parent="1">
          <mxGeometry x="280" y="320" width="80" height="40" as="geometry" />
        </mxCell>
        <mxCell id="SbXN5RtH8hsS0JA_UMuh-12" value="" style="rounded=1;whiteSpace=wrap;html=1;fillColor=#ffff88;strokeColor=none;" vertex="1" parent="1">
          <mxGeometry x="374" y="200" width="80" height="40" as="geometry" />
        </mxCell>
        <mxCell id="SbXN5RtH8hsS0JA_UMuh-13" value="" style="rounded=1;whiteSpace=wrap;html=1;fillColor=#F19C99;strokeColor=none;" vertex="1" parent="1">
          <mxGeometry x="280" y="280" width="80" height="40" as="geometry" />
        </mxCell>
        <mxCell id="SbXN5RtH8hsS0JA_UMuh-14" value="" style="rounded=1;whiteSpace=wrap;html=1;fillColor=#F19C99;strokeColor=none;" vertex="1" parent="1">
          <mxGeometry x="374" y="130" width="80" height="40" as="geometry" />
        </mxCell>
        <mxCell id="SbXN5RtH8hsS0JA_UMuh-3" value="" style="rounded=1;whiteSpace=wrap;html=1;strokeWidth=6;strokeColor=#999999;fillColor=none;" vertex="1" parent="1">
          <mxGeometry x="530" y="180" width="80" height="180" as="geometry" />
        </mxCell>
      </root>
    </mxGraphModel>
  </diagram>
</mxfile>
